<svg width="126" height="209" viewBox="0 0 126 209" fill="none" xmlns="http://www.w3.org/2000/svg">
<path d="M59.851 106.035C53.4162 110.926 46.9421 110.309 41.2131 104.468C47.6781 103.272 53.6542 102.462 59.851 106.035ZM72.8362 58.1833C66.0046 64.4327 57.7945 65.095 51.2352 60.0546C58.3345 57.9414 64.9038 55.7556 72.8362 58.1833ZM109.933 181.593C109.187 182.342 108.962 182.762 108.629 182.877C81.6727 192.223 55.22 191.513 29.5927 178.397C23.0834 175.065 17.6345 170.151 13.2817 164.15C3.89375 151.209 3.94921 134.491 13.4526 121.669C18.3723 115.031 24.1246 109.454 32.269 106.803C35.592 108.836 38.7381 111.049 42.1329 112.773C47.4882 115.492 53.1415 116.192 58.9061 113.983C63.244 112.322 65.7915 109.379 65.4734 106.233C65.0721 102.263 62.2354 99.9535 58.8293 99.2848C54.0665 98.3497 49.1178 98.109 44.2453 98.0621C41.0829 98.0314 37.9138 98.8778 34.8156 99.3212C24.7343 87.9591 28.899 72.8984 44.7092 63.7899C46.6846 64.7071 48.739 65.8188 50.9035 66.6385C58.6945 69.591 66.4431 69.7578 73.7612 65.3551C76.5113 63.7 78.9548 61.37 78.5503 57.6076C78.2387 54.703 75.3208 52.2791 71.0901 51.5679C64.3703 50.4381 57.8804 51.7574 51.509 53.8166C49.2891 54.5334 47.1187 55.401 45.0233 56.1644C28.7924 39.1904 29.5628 12.5288 49.9337 2.6801C48.5015 1.74075 47.5292 0.608729 46.5116 0.56649C45.3839 0.520868 44.0321 1.24879 43.0933 2.02302C34.2477 9.32103 28.4937 18.236 29.2292 30.2097C29.7784 39.1332 32.6467 47.3708 37.2892 54.9987C37.9518 56.0856 38.5892 57.1881 39.2105 58.2995C39.3026 58.4616 39.2441 58.7064 39.2799 59.3374C38.4536 60.1517 37.4585 61.2367 36.3587 62.1995C22.7698 74.0916 20.4696 84.3544 27.9161 101.414C26.4342 102.347 24.8934 103.343 23.3293 104.3C14.0921 109.956 7.30815 117.718 3.29007 127.804C-3.32007 144.39 0.872235 162.148 14.2586 174.772C21.5444 181.644 29.9835 186.589 39.4359 189.753C62.3738 197.43 85.2243 197.703 107.905 188.627C109.097 188.151 110.296 187.692 111.502 187.256C111.667 187.195 111.896 187.31 112.917 187.482C110.844 191.619 107.763 194.651 104.896 197.804C102.077 200.906 99.1299 203.893 95.9964 207.184C98.9182 209.123 101.146 208.596 103.185 207.314C105.529 205.839 108.072 204.429 109.887 202.413C114.746 197.011 119.535 191.501 123.829 185.65C127.247 180.992 125.878 177.784 120.632 176.779C109.498 174.644 98.3476 172.593 87.1904 170.59C85.4432 170.275 83.6186 170.385 81.2687 170.274C81.8748 174.089 84.2334 174.593 86.3904 175.191C94.0141 177.301 101.655 179.348 109.933 181.593Z" fill="#231F20"/>
</svg>
